<svg width="243" height="48" viewBox="0 0 243 48" fill="none" xmlns="http://www.w3.org/2000/svg">
<g clip-path="url(#clip0_655_6886)">
<path d="M24.8321 48.0937C22.3244 47.8414 17.907 46.1464 14.2735 43.3776C11.0543 40.9245 7.21684 36.7193 7.21684 30.6151V4.47844C10.0673 2.97753 12.9641 1.83253 15.8306 1.07455C18.7616 0.299585 21.7442 -0.09375 24.6965 -0.09375C27.6459 -0.09375 30.6489 0.298942 33.6225 1.07262C36.5383 1.8315 39.506 2.97779 42.4474 4.48152V30.6151C42.4474 36.7193 38.6099 40.9245 35.3908 43.3776C31.7573 46.1464 27.3402 47.8414 24.8321 48.0937Z" fill="#010111"/>
<path d="M38.5557 30.6247C38.5557 32.6676 37.9908 34.5376 36.8293 36.3421C35.9008 37.7834 34.6132 39.1354 33.0022 40.3594C30.0562 42.5977 26.6669 43.8945 24.8886 44.21C23.1102 43.8945 19.721 42.5977 16.7749 40.3594C15.164 39.1354 13.8764 37.7834 12.9482 36.3421C11.7863 34.5376 11.2214 32.6676 11.2214 30.6247V6.85143C13.1232 5.98637 15.031 5.29952 16.916 4.80247C19.5114 4.11807 22.1482 3.77078 24.7525 3.77078C27.3596 3.77078 30.0217 4.11871 32.6649 4.80478C34.6046 5.30776 36.5777 6.00451 38.5557 6.88295V30.6247ZM39.0502 5.84831C37.0149 4.94413 34.97 4.22306 32.9722 3.70465C30.2288 2.99284 27.4632 2.63179 24.7525 2.63179C22.0426 2.63179 19.3013 2.99245 16.6045 3.70362C14.6589 4.2165 12.6783 4.92895 10.7171 5.82103L10.0398 6.12907V30.6247C10.0398 32.8863 10.6624 34.9529 11.9439 36.9428C12.9449 38.4973 14.3241 39.9477 16.0433 41.2541C19.0463 43.5358 22.6226 44.9664 24.6747 45.3304L24.8886 45.3682L25.1026 45.3304C27.1545 44.9664 30.7311 43.5358 33.7339 41.2541C35.4531 39.9479 36.8324 38.4973 37.8333 36.9428C39.1148 34.9529 39.7374 32.8863 39.7374 30.6247V6.15377L39.0502 5.84831Z" fill="white"/>
<path d="M37.3136 30.581C37.3136 32.4059 36.8073 34.0796 35.7653 35.6985C34.9099 37.0275 33.7142 38.2805 32.212 39.4228C29.4745 41.5037 26.3948 42.6752 24.8321 43.0063C23.2696 42.6752 20.1897 41.5037 17.4527 39.4228C15.9502 38.2805 14.7545 37.0275 13.8989 35.6985C12.8574 34.0796 12.3507 32.4059 12.3507 30.581V7.53332C13.9642 6.83682 15.5836 6.27236 17.1739 5.85307C19.6667 5.19505 22.1979 4.86173 24.6961 4.86173C27.1986 4.86173 29.7566 5.19634 32.2991 5.85629C33.9444 6.28356 35.6283 6.85947 37.3136 7.5718V30.581ZM24.6961 3.722C22.0926 3.722 19.4565 4.06935 16.8619 4.75388C14.9775 5.25103 13.0702 5.93801 11.169 6.80323V30.581C11.169 32.6243 11.7337 34.4947 12.8953 36.2995C13.8232 37.7411 15.1104 39.0934 16.7209 40.3176C19.6661 42.5563 23.0543 43.8534 24.8321 44.169C26.6099 43.8534 29.9982 42.5563 32.9434 40.3176C34.5539 39.0934 35.8411 37.7411 36.7694 36.2995C37.9305 34.4947 38.4953 32.6243 38.4953 30.581V6.83476C36.5178 5.95616 34.5453 5.25927 32.6062 4.7562C29.9638 4.06999 27.3024 3.722 24.6961 3.722Z" fill="#CFC5E8"/>
<path d="M34.7689 36.4281C34.7689 41.7266 30.3202 46.0223 24.8321 46.0223C19.8292 46.0223 15.6897 42.4523 14.9974 37.807C14.9804 37.6935 14.9658 37.5796 14.9529 37.4645C14.915 37.1241 14.8953 36.7784 14.8953 36.4281C14.8953 31.1299 19.3445 26.8346 24.8321 26.8346C27.4056 26.8346 29.7503 27.7787 31.5152 29.3282C32.756 30.4175 33.7105 31.8062 34.2553 33.376C34.5885 34.3349 34.7689 35.3612 34.7689 36.4281Z" fill="white"/>
<path d="M34.7689 36.4361C34.7689 41.7302 30.3073 46.0223 24.8033 46.0223C19.6633 46.0223 15.4319 42.2789 14.8953 37.4717C16.6651 39.0199 19.0167 38.918 21.5976 38.918C27.1012 38.918 30.8417 35.2688 31.5633 30.3772C31.6143 30.0308 31.5436 29.6818 31.5057 29.3421C33.5105 31.0957 34.7689 33.6246 34.7689 36.4361Z" fill="#CFC5E8"/>
<path d="M32.4197 41.6331C32.2313 40.954 31.9811 40.3629 31.7508 39.9007C32.0675 39.2991 32.4814 38.3357 32.6036 37.2372C33.0444 37.0073 33.5784 36.698 34.1419 36.3016C34.1425 36.3438 34.1429 36.3859 34.1429 36.4281C34.1429 38.3663 33.5044 40.1633 32.4197 41.6331ZM25.2843 45.4071L24.9032 44.4599C25.2641 44.2899 25.62 44.0869 25.9702 43.8513C26.7107 43.3525 27.426 42.7081 28.0954 41.9351C28.3845 41.6018 28.6398 41.2739 28.8594 40.9701C29.4461 41.0001 30.2108 40.9676 30.9434 40.7224C31.1792 41.2531 31.4133 41.9173 31.5392 42.657C29.9419 44.2599 27.7357 45.2934 25.2843 45.4071ZM23.8521 43.7541C22.7912 43.6217 21.9613 43.285 21.4026 42.9868C20.453 41.5621 20.1807 39.3779 20.1077 37.9948L22.0547 36.1804L27.1119 37.774L27.7883 40.6113C26.9246 41.7503 25.5791 43.1473 23.8521 43.7541ZM19.2242 43.5996C17.432 42.2899 16.1441 40.3699 15.6954 38.1625C16.1366 37.5562 16.6403 37.0452 17.2036 36.6313C17.6859 37.2125 18.3138 37.7091 19.026 38.1568C19.101 39.4487 19.346 41.3361 20.0947 42.8593L19.2242 43.5996ZM15.5213 36.4281C15.5213 34.3778 16.2363 32.4851 17.4381 30.9712C17.4255 31.8346 17.5176 32.6972 17.5975 33.2716C17.3843 33.8076 17.129 34.5825 16.9812 35.5027C16.7576 35.644 16.5417 35.7972 16.3328 35.9622C16.0496 36.1863 15.7804 36.4324 15.5258 36.6986C15.523 36.6087 15.5213 36.5187 15.5213 36.4281ZM18.6581 29.7051C20.2134 28.372 22.2332 27.5336 24.4496 27.4466L24.7311 28.5232C24.5141 28.6283 24.2988 28.7456 24.0858 28.8747C23.403 29.2889 22.7403 29.8257 22.1162 30.4697C21.5958 31.0067 21.1907 31.5267 20.9106 31.921C20.0285 31.8331 19.1413 32.0498 18.5745 32.2363C18.5032 31.3899 18.4878 30.4141 18.6581 29.7051ZM25.7528 29.231C26.3961 29.3465 27.3304 29.5943 28.3145 30.1231C28.7045 30.9913 29.4993 33.0145 29.415 34.9168C28.8216 35.2655 27.9074 35.8862 27.2532 36.7151L22.3575 35.1725L21.691 32.6817C22.2708 31.8327 23.7122 29.9923 25.7528 29.231ZM30.6138 29.3868C32.4107 30.7649 33.6707 32.77 34.0347 35.0562C33.4014 35.557 32.7732 35.9428 32.26 36.2203C31.9166 35.8509 31.3365 35.3175 30.505 34.8503C30.5346 33.8497 30.363 32.7328 29.9903 31.5121C29.8269 30.9765 29.6491 30.5036 29.4938 30.1277L30.6138 29.3868ZM34.6122 32.4389C34.0774 31.2186 33.3124 30.1228 32.3377 29.1818C31.3632 28.2409 30.2281 27.5022 28.9642 26.9859C27.6548 26.4512 26.2651 26.1804 24.8321 26.1804C23.3996 26.1804 22.0094 26.4512 20.7004 26.9859C19.4364 27.5022 18.3015 28.2409 17.3268 29.1818C16.352 30.1228 15.5869 31.2186 15.0525 32.4389C14.4986 33.7028 14.2178 35.045 14.2178 36.4281C14.2178 37.8115 14.4986 39.1534 15.0525 40.4176C15.5869 41.6379 16.352 42.7338 17.3268 43.6747C18.3015 44.6156 19.4364 45.3547 20.7004 45.8707C22.0094 46.4053 23.3996 46.6765 24.8321 46.6765C26.2651 46.6765 27.6548 46.4053 28.9642 45.8707C30.2281 45.3547 31.3632 44.6156 32.3377 43.6747C33.3124 42.7338 34.0774 41.6379 34.6122 40.4176C35.1656 39.1534 35.4465 37.8115 35.4465 36.4281C35.4465 35.045 35.1656 33.7028 34.6122 32.4389Z" fill="#010111"/>
<path d="M25.5462 45.1488L25.3568 44.6801C25.6428 44.5323 25.9265 44.3641 26.2032 44.1786C26.971 43.6632 27.7103 42.9993 28.4006 42.2051C28.6346 41.936 28.8631 41.652 29.0813 41.3587C29.1478 41.3603 29.214 41.3614 29.2794 41.3614C29.833 41.3614 30.35 41.2987 30.82 41.175C31.0169 41.6587 31.1629 42.1434 31.2561 42.6204C29.7186 44.104 27.7048 44.9952 25.5462 45.1488ZM31.009 40.7893C30.2736 41.0346 29.5058 41.0672 28.9169 41.0372C28.6963 41.3412 28.4401 41.6693 28.1498 42.0029C27.4778 42.7763 26.7597 43.4212 26.0163 43.9203C25.6647 44.1562 25.3074 44.3592 24.945 44.5294L25.3276 45.4772C27.7888 45.3634 30.0036 44.3292 31.6072 42.7252C31.4808 41.9851 31.2458 41.3204 31.009 40.7893Z" fill="white"/>
<path d="M32.491 40.9279C32.3726 40.5918 32.235 40.2581 32.0794 39.9292C32.3808 39.3246 32.7312 38.4504 32.8662 37.4554C33.1686 37.2916 33.4657 37.1157 33.7548 36.9298C33.675 38.3507 33.2437 39.714 32.491 40.9279ZM34.0904 36.3194C33.5319 36.7166 33.0025 37.0265 32.5656 37.2569C32.4444 38.3575 32.0341 39.3229 31.7202 39.9256C31.9485 40.3888 32.1965 40.9811 32.3832 41.6615C33.4585 40.1888 34.0914 38.3882 34.0914 36.4462C34.0914 36.4039 34.091 36.3617 34.0904 36.3194Z" fill="white"/>
<path d="M30.7947 34.765C30.8001 33.7752 30.6226 32.6771 30.2666 31.4979C30.1478 31.1035 30.0103 30.7065 29.8573 30.315L30.5588 29.8457C32.183 31.1733 33.2651 32.9963 33.628 35.0189C33.2074 35.3438 32.7535 35.6459 32.275 35.9204C31.9376 35.5809 31.4461 35.156 30.7947 34.765ZM30.5758 29.4511L29.4618 30.1958C29.6162 30.5736 29.7931 31.0489 29.9557 31.5872C30.3264 32.8142 30.497 33.9367 30.4676 34.9424C31.2947 35.412 31.8717 35.9482 32.2132 36.3194C32.7237 36.0405 33.3486 35.6527 33.9785 35.1494C33.6164 32.8516 32.3632 30.8362 30.5758 29.4511Z" fill="white"/>
<path d="M19.2054 43.2148C17.5829 41.9557 16.4642 40.2062 16.0339 38.2511C16.3696 37.8072 16.7447 37.4158 17.1522 37.0836C17.5603 37.5234 18.0718 37.9404 18.7037 38.3501C18.788 39.6149 19.0309 41.3401 19.6922 42.8008L19.2054 43.2148ZM19.0197 38.174C18.3068 37.7256 17.6783 37.2285 17.1955 36.6465C16.6316 37.0609 16.1274 37.5725 15.6857 38.1796C16.1349 40.39 17.4241 42.3125 19.2181 43.6239L20.0896 42.8826C19.3401 41.3575 19.0948 39.4675 19.0197 38.174Z" fill="white"/>
<path d="M23.7958 43.4126C22.843 43.2836 22.0958 42.9822 21.6144 42.7352C20.752 41.3948 20.4972 39.342 20.4232 38.1382L22.1214 36.5661L26.8158 38.0354L27.4167 40.5411C26.6208 41.5603 25.3738 42.8363 23.7958 43.4126ZM27.0918 37.7933L22.0361 36.2104L20.0895 38.0125C20.1626 39.3863 20.4348 41.5557 21.3842 42.9708C21.9427 43.267 22.7723 43.6014 23.833 43.7329C25.5595 43.1302 26.9046 41.7426 27.768 40.6114L27.0918 37.7933Z" fill="white"/>
<path d="M3.26469 27.6837L7.56205 29.015L42.4713 22.59L46.5125 19.5395L36.0781 18.0038L7.22424 25.0986L3.26469 27.6837Z" fill="#010111"/>
<path d="M45.6493 15.2825C46.0591 14.6309 46.3161 13.8757 46.3761 13.1393L46.8512 7.31971L2.81302 15.6432L3.89732 19.5763C3.89732 19.5763 3.56886 23.5984 3.56859 23.6011L3.22467 27.8154H3.2248V27.8158L46.5209 19.6321L45.6493 15.2825Z" fill="#010111"/>
<path d="M9.95073 18.8136L11.3116 18.5561L11.5077 16.1505L5.52021 17.2831L5.93385 18.784L5.77028 20.7888C5.7587 20.9294 5.76416 21.0609 5.78425 21.1808C5.85812 21.6267 6.13308 21.9043 6.48843 21.8372L9.21009 21.3224C9.36035 21.294 9.46762 21.4504 9.44952 21.6721L9.38417 22.4738C9.36607 22.6955 9.22952 22.8977 9.07927 22.9264L7.17397 23.2866L7.23945 22.4847L5.87861 22.7423C5.72836 22.7706 5.59167 22.9735 5.57371 23.1948L5.41014 25.1992L10.037 24.3241C10.4877 24.2388 10.8973 23.6305 10.9514 22.9665L11.1476 20.5609C11.1589 20.4206 11.1535 20.2888 11.134 20.1689C11.0598 19.7234 10.7844 19.4453 10.4295 19.5125L7.70792 20.0274C7.55766 20.0559 7.45026 19.8992 7.46836 19.6778L7.56645 18.475L9.74391 18.0631L9.71117 18.4642C9.69321 18.6855 9.80048 18.8419 9.95073 18.8136Z" fill="white"/>
<path d="M16.0078 21.6113L14.1158 21.9701C13.9666 21.9985 13.8599 21.8427 13.8779 21.6224L14.2351 17.2309L16.1273 16.8721C16.2765 16.8436 16.383 16.9997 16.3652 17.22L16.0078 21.6113ZM17.3379 15.0702L12.2031 16.0441L12.6134 17.5385L12.1912 22.7285C12.1374 23.3892 12.4572 23.8569 12.9045 23.772L17.4993 22.9007L18.0511 16.1143C18.1049 15.4532 17.7856 14.9853 17.3379 15.0702Z" fill="white"/>
<path d="M24.3652 16.1102C24.515 16.0818 24.6512 15.8781 24.6691 15.656L24.8321 13.643L18.8649 14.78L19.277 16.2868L18.8534 21.5199C18.7994 22.1865 19.1202 22.6583 19.5691 22.5727L23.3663 21.8489C23.8155 21.7636 24.224 21.1525 24.278 20.4862L24.4083 18.8759C24.4172 18.7648 24.3948 18.6703 24.352 18.6065C24.3086 18.5433 24.2444 18.5109 24.1696 18.5255L22.8135 18.7837L22.7158 19.9916C22.6977 20.2138 22.5615 20.4171 22.4118 20.4455L20.7843 20.7557C20.635 20.7842 20.5276 20.6274 20.5457 20.4049L20.9042 15.9767L23.0743 15.5634L23.009 16.3688L24.3652 16.1102Z" fill="white"/>
<path d="M30.9145 14.8022C31.0646 14.7738 31.2005 14.5701 31.2184 14.3478L31.3814 12.3347L25.4146 13.4719L25.8264 14.9788L25.4026 20.2116C25.3487 20.8782 25.6693 21.3501 26.1185 21.2644L29.9162 20.541C30.3651 20.4552 30.7736 19.8445 30.8276 19.1779L30.958 17.5679C30.9668 17.4564 30.9445 17.3622 30.902 17.2981C30.8581 17.2349 30.7939 17.2028 30.7192 17.217L29.3631 17.4756L29.2652 18.6835C29.2473 18.9057 29.1111 19.1088 28.9613 19.1376L27.3342 19.4474C27.1844 19.4761 27.0774 19.319 27.0954 19.0969L27.454 14.6685L29.6235 14.2549L29.5583 15.0604L30.9145 14.8022Z" fill="white"/>
<path d="M36.4776 13.7986L37.8465 13.541L38.0436 11.1355L32.0208 12.2681L32.4365 13.769L32.3049 15.3727L31.7575 15.4758L31.9656 16.2259L32.1733 16.9766L32.0416 18.5806L31.4943 18.6834L31.91 20.1842L37.3859 19.1546L37.5505 17.1502C37.5685 16.9285 37.4606 16.7721 37.3097 16.8004L35.9405 17.0579L35.8747 17.8596L33.6845 18.2717L33.8161 16.6676L36.5541 16.1529L36.6857 14.5489L33.9477 15.0641L34.0793 13.4601L36.2696 13.0484L36.2366 13.4496C36.2184 13.6705 36.3261 13.8269 36.4776 13.7986Z" fill="white"/>
<path d="M40.676 12.1517L42.8401 11.74L42.7427 12.9427C42.7247 13.1644 42.5888 13.3666 42.4396 13.3953L40.546 13.7556L40.676 12.1517ZM44.2213 13.8455C44.2617 13.7141 44.289 13.5765 44.3005 13.4359L44.5929 9.82721L38.6424 10.9598L39.0531 12.4606L38.9231 14.0646L38.3823 14.1672L38.5879 14.9179L38.793 15.6681L38.533 18.876L40.156 18.567L40.416 15.3596L41.7146 15.1122L42.32 18.155L43.9426 17.8461L43.3369 14.8033L43.3914 14.793C43.7442 14.7258 44.072 14.3336 44.2213 13.8455Z" fill="white"/>
<mask id="mask0_655_6886" style="mask-type:luminance" maskUnits="userSpaceOnUse" x="5" y="20" width="6" height="5">
<path d="M5.63599 20.4023H10.9432V24.8722H5.63599V20.4023Z" fill="white"/>
</mask>
<g mask="url(#mask0_655_6886)">
<mask id="mask1_655_6886" style="mask-type:luminance" maskUnits="userSpaceOnUse" x="5" y="20" width="6" height="5">
<path d="M5.63599 24.8722L5.78062 23.1087C5.78825 23.0175 5.8287 22.9536 5.84718 22.9382L6.98577 22.7244L6.91988 23.5262L9.0626 23.1233C9.34302 23.0705 9.58542 22.7478 9.61488 22.3884L9.68077 21.5866C9.71063 21.2267 9.51417 20.9861 9.23401 21.0387L6.49548 21.5533C6.32608 21.5853 6.17622 21.4941 6.081 21.316L10.9427 20.4023C10.944 20.454 10.9424 20.5066 10.9379 20.5606L10.7405 22.9655C10.6979 23.487 10.3887 23.9789 10.0661 24.0395L5.63599 24.8722Z" fill="white"/>
</mask>
<g mask="url(#mask1_655_6886)">
<mask id="mask2_655_6886" style="mask-type:luminance" maskUnits="userSpaceOnUse" x="5" y="20" width="6" height="5">
<path d="M5.63599 24.8722L5.78062 23.1087C5.78825 23.0175 5.8287 22.9536 5.84718 22.9382L6.98577 22.7244L6.91988 23.5262L9.0626 23.1233C9.34302 23.0705 9.58542 22.7478 9.61488 22.3884L9.68077 21.5866C9.71063 21.2267 9.51417 20.9861 9.23401 21.0387L6.49548 21.5533C6.32608 21.5853 6.17622 21.4941 6.081 21.316L10.9427 20.4023C10.944 20.454 10.9424 20.5066 10.9379 20.5606L10.7405 22.9655C10.6979 23.487 10.3887 23.9789 10.0661 24.0395L5.63599 24.8722Z" fill="white"/>
</mask>
<g mask="url(#mask2_655_6886)">
<path d="M5.0714 25.7443L10.8798 24.807L11.3948 19.4211L5.58625 20.3584L5.0714 25.7443Z" fill="url(#paint0_linear_655_6886)"/>
</g>
</g>
</g>
<mask id="mask3_655_6886" style="mask-type:luminance" maskUnits="userSpaceOnUse" x="12" y="19" width="6" height="5">
<path d="M12.4111 19.094H17.7183V23.4549H12.4111V19.094Z" fill="white"/>
</mask>
<g mask="url(#mask3_655_6886)">
<mask id="mask4_655_6886" style="mask-type:luminance" maskUnits="userSpaceOnUse" x="12" y="19" width="6" height="5">
<path d="M12.9392 23.4487C12.6123 23.5092 12.3728 23.1204 12.4162 22.5999L12.6292 20.0372L13.836 19.8136L13.6891 21.5754C13.6593 21.9346 13.8582 22.1747 14.1418 22.122L16.312 21.7198L16.5119 19.3177L17.7183 19.094L17.4249 22.617L12.9392 23.4487Z" fill="white"/>
</mask>
<g mask="url(#mask4_655_6886)">
<mask id="mask5_655_6886" style="mask-type:luminance" maskUnits="userSpaceOnUse" x="12" y="19" width="6" height="5">
<path d="M12.9392 23.4487C12.6123 23.5092 12.3728 23.1204 12.4162 22.5999L12.6292 20.0372L13.836 19.8136L13.6891 21.5754C13.6593 21.9346 13.8582 22.1747 14.1418 22.122L16.312 21.7198L16.5119 19.3177L17.7183 19.094L17.4249 22.617L12.9392 23.4487Z" fill="white"/>
</mask>
<g mask="url(#mask5_655_6886)">
<path d="M11.8465 24.4361L17.7608 23.4952L18.2829 18.1128L12.3685 19.0536L11.8465 24.4361Z" fill="url(#paint1_linear_655_6886)"/>
</g>
</g>
</g>
<mask id="mask6_655_6886" style="mask-type:luminance" maskUnits="userSpaceOnUse" x="19" y="18" width="6" height="5">
<path d="M19.0733 18.5489H24.2675V22.2557H19.0733V18.5489Z" fill="white"/>
</mask>
<g mask="url(#mask6_655_6886)">
<mask id="mask7_655_6886" style="mask-type:luminance" maskUnits="userSpaceOnUse" x="19" y="18" width="6" height="5">
<path d="M19.5981 22.2493C19.2731 22.3109 19.0352 21.9152 19.0783 21.3849L19.29 18.7764L20.4885 18.5489L20.3427 20.3422C20.313 20.7078 20.5106 20.9526 20.7925 20.899L22.4456 20.585C22.7277 20.5314 22.9716 20.203 23.0012 19.8373L23.0808 18.859L24.226 18.6414C24.2291 18.6434 24.2349 18.6481 24.2415 18.6575C24.2614 18.6873 24.2711 18.7375 24.2663 18.794L24.1343 20.4246C24.0911 20.9546 23.7801 21.4548 23.4551 21.5167L19.5981 22.2493Z" fill="white"/>
</mask>
<g mask="url(#mask7_655_6886)">
<mask id="mask8_655_6886" style="mask-type:luminance" maskUnits="userSpaceOnUse" x="19" y="18" width="6" height="5">
<path d="M19.5981 22.2493C19.2731 22.3109 19.0352 21.9152 19.0783 21.3849L19.29 18.7764L20.4885 18.5489L20.3427 20.3422C20.313 20.7078 20.5106 20.9526 20.7925 20.899L22.4456 20.585C22.7277 20.5314 22.9716 20.203 23.0012 19.8373L23.0808 18.859L24.226 18.6414C24.2291 18.6434 24.2349 18.6481 24.2415 18.6575C24.2614 18.6873 24.2711 18.7375 24.2663 18.794L24.1343 20.4246C24.0911 20.9546 23.7801 21.4548 23.4551 21.5167L19.5981 22.2493Z" fill="white"/>
</mask>
<g mask="url(#mask8_655_6886)">
<path d="M18.6216 23.2369L24.2782 22.3004L24.7192 17.5677L19.0626 18.5042L18.6216 23.2369Z" fill="url(#paint2_linear_655_6886)"/>
</g>
</g>
</g>
<mask id="mask9_655_6886" style="mask-type:luminance" maskUnits="userSpaceOnUse" x="25" y="17" width="6" height="5">
<path d="M25.5096 17.3497H30.7039V21.0564H25.5096V17.3497Z" fill="white"/>
</mask>
<g mask="url(#mask9_655_6886)">
<mask id="mask10_655_6886" style="mask-type:luminance" maskUnits="userSpaceOnUse" x="25" y="17" width="6" height="5">
<path d="M26.0346 21.0501C25.7098 21.1117 25.4718 20.7157 25.5146 20.1857L25.7267 17.5774L26.9256 17.3497L26.7797 19.1431C26.75 19.5088 26.9477 19.7532 27.2294 19.6996L28.8821 19.3856C29.1638 19.3324 29.4081 19.0039 29.4377 18.6383L29.5174 17.66L30.6624 17.4424C30.6659 17.4441 30.6717 17.4492 30.6787 17.4589C30.6979 17.488 30.7072 17.5385 30.7028 17.5948L30.5704 19.2251C30.5272 19.7554 30.2164 20.2556 29.8916 20.3172L26.0346 21.0501Z" fill="white"/>
</mask>
<g mask="url(#mask10_655_6886)">
<mask id="mask11_655_6886" style="mask-type:luminance" maskUnits="userSpaceOnUse" x="25" y="17" width="6" height="5">
<path d="M26.0346 21.0501C25.7098 21.1117 25.4718 20.7157 25.5146 20.1857L25.7267 17.5774L26.9256 17.3497L26.7797 19.1431C26.75 19.5088 26.9477 19.7532 27.2294 19.6996L28.8821 19.3856C29.1638 19.3324 29.4081 19.0039 29.4377 18.6383L29.5174 17.66L30.6624 17.4424C30.6659 17.4441 30.6717 17.4492 30.6787 17.4589C30.6979 17.488 30.7072 17.5385 30.7028 17.5948L30.5704 19.2251C30.5272 19.7554 30.2164 20.2556 29.8916 20.3172L26.0346 21.0501Z" fill="white"/>
</mask>
<g mask="url(#mask11_655_6886)">
<path d="M25.058 22.0376L30.7145 21.1012L31.1556 16.3685L25.4988 17.3049L25.058 22.0376Z" fill="url(#paint3_linear_655_6886)"/>
</g>
</g>
</g>
<mask id="mask12_655_6886" style="mask-type:luminance" maskUnits="userSpaceOnUse" x="31" y="15" width="7" height="5">
<path d="M31.8331 15.6053H37.3661V19.9662H31.8331V15.6053Z" fill="white"/>
</mask>
<g mask="url(#mask12_655_6886)">
<mask id="mask13_655_6886" style="mask-type:luminance" maskUnits="userSpaceOnUse" x="31" y="15" width="7" height="5">
<path d="M32.1244 19.9662L31.8331 18.8959L32.2842 18.8097L32.4392 16.8867L32.3047 16.392L36.414 15.6053L36.3876 15.9319L33.6477 16.4564L33.4764 18.5812L36.12 18.075L36.186 17.2582L37.3251 17.04C37.3415 17.0491 37.3724 17.1005 37.3649 17.1934L37.2201 18.9906L32.1244 19.9662Z" fill="white"/>
</mask>
<g mask="url(#mask13_655_6886)">
<mask id="mask14_655_6886" style="mask-type:luminance" maskUnits="userSpaceOnUse" x="31" y="15" width="7" height="5">
<path d="M32.1244 19.9662L31.8331 18.8959L32.2842 18.8097L32.4392 16.8867L32.3047 16.392L36.414 15.6053L36.3876 15.9319L33.6477 16.4564L33.4764 18.5812L36.12 18.075L36.186 17.2582L37.3251 17.04C37.3415 17.0491 37.3724 17.1005 37.3649 17.1934L37.2201 18.9906L32.1244 19.9662Z" fill="white"/>
</mask>
<g mask="url(#mask14_655_6886)">
<path d="M31.3814 20.9474L37.4286 19.9566L37.9307 14.6242L31.8834 15.6149L31.3814 20.9474Z" fill="url(#paint4_linear_655_6886)"/>
</g>
</g>
</g>
<mask id="mask15_655_6886" style="mask-type:luminance" maskUnits="userSpaceOnUse" x="38" y="14" width="6" height="5">
<path d="M38.7211 14.1881H43.9153V18.6579H38.7211V14.1881Z" fill="white"/>
</mask>
<g mask="url(#mask15_655_6886)">
<mask id="mask16_655_6886" style="mask-type:luminance" maskUnits="userSpaceOnUse" x="38" y="14" width="6" height="5">
<path d="M42.5239 17.9437L41.9066 14.8828L40.1856 15.206L39.9206 18.4326L38.7211 18.6579L38.9699 15.6308L38.8346 15.1425L43.9153 14.1881C43.7862 14.4094 43.6154 14.5617 43.445 14.5935L43.0867 14.6608L43.7041 17.7218L42.5239 17.9437Z" fill="white"/>
</mask>
<g mask="url(#mask16_655_6886)">
<mask id="mask17_655_6886" style="mask-type:luminance" maskUnits="userSpaceOnUse" x="38" y="14" width="6" height="5">
<path d="M42.5239 17.9437L41.9066 14.8828L40.1856 15.206L39.9206 18.4326L38.7211 18.6579L38.9699 15.6308L38.8346 15.1425L43.9153 14.1881C43.7862 14.4094 43.6154 14.5617 43.445 14.5935L43.0867 14.6608L43.7041 17.7218L42.5239 17.9437Z" fill="white"/>
</mask>
<g mask="url(#mask17_655_6886)">
<path d="M38.1565 19.6391L43.8534 18.7152L44.367 13.3159L38.6701 14.2399L38.1565 19.6391Z" fill="url(#paint5_linear_655_6886)"/>
</g>
</g>
</g>
<path d="M4.16805 32.9951L4.61184 26.3255L45.4962 18.6579L45.0448 25.4456L40.524 30.1102L40.8435 26.9065L9.11599 32.8569L10.0287 34.5751L4.16805 32.9951Z" fill="#010111"/>
<path d="M43.3066 24.8093L5.97473 31.8495L6.24487 27.7696L43.5766 20.7294L43.3066 24.8093Z" fill="#FF0000"/>
<path d="M11.178 28.2132L11.1514 28.6201L12.0237 28.4534L12.0014 28.7953L11.1293 28.962L11.0803 29.7084L10.7173 29.7781L10.8369 27.9427L12.0723 27.7067L12.0504 28.0465L11.178 28.2132Z" fill="white"/>
<path d="M14.0613 28.7469L14.1003 28.7078L14.1726 27.6627L14.1381 27.637L13.4707 27.7572L13.432 27.7959L13.3596 28.8414L13.3941 28.867L14.0613 28.7469ZM13.0752 27.6672L13.2717 27.4707L14.3824 27.2706C14.4169 27.2964 14.4461 27.3181 14.4707 27.3353C14.495 27.3529 14.5234 27.3747 14.5565 27.4006L14.4567 28.8368C14.4194 28.8751 14.3871 28.9079 14.3596 28.9349C14.3322 28.9615 14.2992 28.9943 14.2605 29.0333L13.1494 29.233L12.9757 29.1031L13.0752 27.6672Z" fill="white"/>
<path d="M16.6587 28.3108L16.6974 28.2718L16.7697 27.2265L16.7353 27.2008L16.0681 27.3207L16.0291 27.3597L15.9567 28.4053L15.9912 28.4305L16.6587 28.3108ZM15.6726 27.231L15.8688 27.0346L16.9795 26.8346C17.014 26.8602 17.0435 26.8819 17.0678 26.8991C17.0921 26.9166 17.121 26.9385 17.1537 26.9645L17.0541 28.4003C17.0169 28.439 16.9845 28.4719 16.9572 28.4984C16.9293 28.5254 16.8963 28.5582 16.8576 28.5969L15.7469 28.7969L15.5728 28.667L15.6726 27.231Z" fill="white"/>
<path d="M19.1862 26.3985L19.1637 26.7328L18.6835 26.8213L18.5841 28.2924L18.214 28.3609L18.3134 26.8895L17.8312 26.9784L17.8537 26.644L19.1862 26.3985Z" fill="white"/>
<path d="M20.4165 26.8795L21.0789 26.7548L21.1561 26.6742L21.1742 26.4026C21.1599 26.3928 21.1481 26.3844 21.1389 26.3773C21.1295 26.3699 21.1187 26.3608 21.1062 26.3493L20.4433 26.4741L20.4165 26.8795ZM21.1246 27.1489L21.0566 27.0956L20.3938 27.2204L20.367 27.6259L21.0297 27.5012C21.044 27.4847 21.0566 27.4711 21.0671 27.4601C21.0776 27.4493 21.0908 27.4361 21.1065 27.4206L21.1246 27.1489ZM21.3378 26.8735L21.4974 27.0003L21.4586 27.5878C21.4217 27.6276 21.3895 27.6617 21.3624 27.6892C21.3351 27.7172 21.302 27.7513 21.2635 27.7918L19.9766 28.0338L20.0981 26.2044L21.385 25.9624C21.4188 25.989 21.4481 26.0115 21.4723 26.0294C21.4964 26.0476 21.525 26.0702 21.5575 26.0972L21.5184 26.6848L21.3378 26.8735Z" fill="white"/>
<path d="M23.1789 26.7633L22.9989 26.1427L22.7321 26.8483L23.1789 26.7633ZM23.7029 27.2959L23.3517 27.363L23.268 27.0706L22.598 27.1985L22.4736 27.5307L22.1221 27.5977L22.8345 25.7095L23.2227 25.6353L23.7029 27.2959Z" fill="white"/>
<path d="M25.6225 26.6147L25.6015 26.9452L24.4934 27.1616L24.6076 25.3757L24.9533 25.3083L24.8604 26.7634L25.6225 26.6147Z" fill="white"/>
<path d="M27.6551 26.2876L27.6342 26.618L26.5259 26.8346L26.6401 25.0487L26.9859 24.9812L26.893 26.4363L27.6551 26.2876Z" fill="white"/>
<path d="M30.9785 25.4928L31.282 25.675C31.2446 25.7137 31.2119 25.7462 31.1846 25.7732C31.1571 25.7997 31.1241 25.8326 31.0855 25.8716L29.9745 26.0714L29.8005 25.9417L29.9 24.5053L30.0965 24.3088L31.2074 24.109C31.2419 24.1343 31.271 24.1561 31.2956 24.1736C31.3199 24.1911 31.3483 24.2126 31.3814 24.2386L31.0447 24.5359L30.9631 24.4751L30.2959 24.5953L30.2569 24.634L30.1844 25.6796L30.2188 25.7053L30.8861 25.585L30.9785 25.4928Z" fill="white"/>
<path d="M33.301 25.1974L33.28 25.5277L32.1718 25.7443L32.2861 23.9585L32.6317 23.891L32.5389 25.3461L33.301 25.1974Z" fill="white"/>
<path d="M35.7852 23.2368L35.6749 24.897C35.6378 24.9367 35.6058 24.9707 35.5785 24.9984C35.5512 25.0264 35.5185 25.0604 35.4798 25.101L34.3768 25.3083L34.2043 25.1734L34.3144 23.5134L34.6822 23.4443L34.5856 24.9017L34.6194 24.9283L35.2822 24.8036L35.3206 24.763L35.4172 23.306L35.7852 23.2368Z" fill="white"/>
<path d="M37.2413 23.7179L37.9038 23.5932L37.981 23.5126L37.9991 23.241C37.9848 23.2312 37.9729 23.2228 37.9635 23.2153C37.9544 23.2083 37.9436 23.1992 37.9306 23.1878L37.2682 23.3121L37.2413 23.7179ZM37.9495 23.9873L37.881 23.934L37.2187 24.0588L37.1917 24.4642L37.8542 24.3395C37.8689 24.3231 37.8814 24.3093 37.8919 24.2985C37.902 24.2877 37.9152 24.2741 37.9313 24.259L37.9495 23.9873ZM38.1627 23.7118L38.3222 23.8386L38.2835 24.4258C38.2461 24.4659 38.2141 24.5001 38.1868 24.5277C38.1596 24.5556 38.1268 24.5897 38.0884 24.6298L36.8015 24.8722L36.923 23.0428L38.2095 22.8008C38.2437 22.8274 38.2727 22.8496 38.2971 22.8678C38.3213 22.886 38.3495 22.9086 38.3823 22.9356L38.3432 23.5227L38.1627 23.7118Z" fill="white"/>
<path d="M5.97473 31.8695L7.55559 32.5037L7.3716 31.3044L5.97473 31.8695Z" fill="#FF0000"/>
<path d="M43.3508 24.836L41.8591 26.6165L41.7699 24.6541L43.3508 24.836Z" fill="#FF0000"/>
<path d="M24.8321 9.70189L23.506 10.3723L23.7593 8.95223L22.6867 7.94659L24.1691 7.7395L24.8321 6.44754L25.4952 7.7395L26.9776 7.94659L25.905 8.95223L26.1583 10.3723L24.8321 9.70189Z" fill="white"/>
<path d="M18.6215 9.94411L19.4592 10.3723L19.2991 9.46516L19.9766 8.82271L19.0404 8.69016L18.6215 7.86482L18.2029 8.69016L17.2666 8.82271L17.9441 9.46516L17.7843 10.3723L18.6215 9.94411Z" fill="#FF0000"/>
<path d="M31.0427 9.94411L30.2051 10.3723L30.3652 9.46516L29.6876 8.82271L30.6239 8.69016L31.0427 7.86482L31.4614 8.69016L32.3977 8.82271L31.7201 9.46516L31.8799 10.3723L31.0427 9.94411Z" fill="#FF0000"/>
</g>
<path d="M66.3284 27.4787V35.6809H61.621V13.1968H66.3284V23.3936L76.4614 13.1968H81.9508L72.3444 22.7074L82.7327 35.6809H77.1795L69.105 25.3564L66.3284 27.4787Z" fill="#FF0000"/>
<path d="M89.8178 12V15.3032H85.3338V12H89.8178ZM89.8178 18.4149V35.6809H85.3338V18.4149H89.8178Z" fill="#FF0000"/>
<path d="M101.626 36C99.0093 36 96.988 35.2234 95.5625 33.6702C94.137 32.1064 93.4242 29.9309 93.4242 27.1436C93.4242 24.2926 94.1423 22.0745 95.5784 20.4894C97.0146 18.8936 99.0518 18.0957 101.69 18.0957C103.722 18.0957 105.403 18.6064 106.733 19.6277C108.062 20.6489 108.898 22.0585 109.238 23.8564L104.722 24.0798C104.594 23.1968 104.275 22.4947 103.765 21.9734C103.254 21.4415 102.531 21.1755 101.594 21.1755C100.435 21.1755 99.5678 21.6596 98.9933 22.6277C98.4189 23.5851 98.1316 25.0319 98.1316 26.9681C98.1316 28.9574 98.4242 30.4521 99.0093 31.4521C99.605 32.4415 100.488 32.9362 101.658 32.9362C102.509 32.9362 103.222 32.6702 103.797 32.1383C104.371 31.5957 104.727 30.7926 104.866 29.7287L109.366 29.9362C109.206 31.1489 108.775 32.2128 108.073 33.1277C107.382 34.0319 106.483 34.7394 105.376 35.25C104.27 35.75 103.02 36 101.626 36Z" fill="#FF0000"/>
<path d="M117.105 29.2021V35.6809H112.621V12H117.105V25.5638L123.265 18.4149H128.084L122.02 25.1489L128.547 35.6809H123.648L119.036 27.8617L117.105 29.2021Z" fill="#FF0000"/>
<path d="M135.392 16.3085C135.392 17.5957 135.259 18.7128 134.993 19.6596C134.738 20.6064 134.291 21.5266 133.653 22.4202H130.749C132.142 20.6223 132.839 18.9309 132.839 17.3457H130.812V13.1968H135.392V16.3085Z" fill="#FF0000"/>
<path d="M144.392 26.4255V35.6809H139.908V22.2766C139.908 21.3511 139.892 20.5957 139.86 20.0106C139.839 19.4149 139.812 18.883 139.781 18.4149H144.057C144.078 18.5426 144.105 18.8457 144.137 19.3245C144.169 19.7926 144.195 20.2766 144.217 20.7766C144.249 21.266 144.265 21.6223 144.265 21.8457H144.328C144.935 20.5266 145.695 19.5691 146.61 18.9734C147.525 18.3777 148.616 18.0798 149.882 18.0798C151.711 18.0798 153.116 18.6436 154.094 19.7713C155.073 20.8989 155.562 22.5479 155.562 24.7181V35.6809H151.094V25.9947C151.094 24.4734 150.839 23.3351 150.328 22.5798C149.818 21.8245 149.047 21.4468 148.015 21.4468C146.93 21.4468 146.052 21.9149 145.382 22.8511C144.722 23.7766 144.392 24.9681 144.392 26.4255Z" fill="#FF0000"/>
<path d="M164.467 16.3085C164.467 17.5957 164.334 18.7128 164.068 19.6596C163.812 20.6064 163.366 21.5266 162.727 22.4202H159.823C161.217 20.6223 161.914 18.9309 161.914 17.3457H159.887V13.1968H164.467V16.3085Z" fill="#FF0000"/>
<path d="M179.562 32.3138C180.786 32.3138 181.972 32.1383 183.121 31.7872C184.27 31.4255 185.158 30.9681 185.786 30.4149V27.3032H180.297V23.8245H190.094V32.0904C188.903 33.3138 187.35 34.2713 185.435 34.9628C183.531 35.6543 181.531 36 179.435 36C176.999 36 174.93 35.5479 173.227 34.6436C171.536 33.7287 170.249 32.4043 169.366 30.6702C168.483 28.9255 168.041 26.8138 168.041 24.3351C168.041 20.633 169.031 17.7979 171.009 15.8298C172.988 13.8511 175.834 12.8617 179.547 12.8617C182.185 12.8617 184.344 13.3511 186.025 14.3298C187.706 15.2979 188.903 16.7606 189.616 18.7181L185.275 20.0266C184.807 18.8883 184.073 18.0266 183.073 17.4415C182.073 16.8564 180.898 16.5638 179.547 16.5638C177.334 16.5638 175.653 17.234 174.504 18.5745C173.355 19.9149 172.781 21.8351 172.781 24.3351C172.781 26.8777 173.371 28.8457 174.552 30.2394C175.743 31.6223 177.414 32.3138 179.562 32.3138Z" fill="#FF0000"/>
<path d="M210.823 27.0319C210.823 29.8298 210.047 32.0266 208.493 33.6223C206.94 35.2074 204.791 36 202.047 36C199.355 36 197.243 35.2021 195.711 33.6064C194.18 32.0106 193.414 29.8191 193.414 27.0319C193.414 24.2553 194.18 22.0745 195.711 20.4894C197.243 18.8936 199.387 18.0957 202.142 18.0957C204.961 18.0957 207.11 18.867 208.589 20.4096C210.078 21.9415 210.823 24.1489 210.823 27.0319ZM206.132 27.0319C206.132 24.9787 205.797 23.4894 205.126 22.5638C204.456 21.6383 203.483 21.1755 202.206 21.1755C200.844 21.1755 199.823 21.6649 199.142 22.6436C198.461 23.6117 198.121 25.0745 198.121 27.0319C198.121 28.9574 198.451 30.4255 199.11 31.4362C199.781 32.4362 200.743 32.9362 201.999 32.9362C203.382 32.9362 204.414 32.4468 205.094 31.4681C205.786 30.4787 206.132 29 206.132 27.0319Z" fill="#FF0000"/>
<path d="M218.387 36C216.717 36 215.414 35.5479 214.477 34.6436C213.541 33.7287 213.073 32.4468 213.073 30.7979C213.073 29.0106 213.653 27.6543 214.812 26.7287C215.983 25.8032 217.674 25.3191 219.887 25.2766L223.605 25.2128V24.3351C223.605 23.2074 223.408 22.3723 223.015 21.8298C222.621 21.2766 221.977 21 221.084 21C220.254 21 219.642 21.1915 219.249 21.5745C218.866 21.9468 218.626 22.5691 218.531 23.4415L213.855 23.2181C214.44 19.8032 216.914 18.0957 221.275 18.0957C223.456 18.0957 225.137 18.633 226.318 19.7074C227.499 20.7819 228.089 22.3085 228.089 24.2872V30.5745C228.089 31.5426 228.195 32.2128 228.408 32.5851C228.632 32.9468 228.999 33.1277 229.509 33.1277C229.85 33.1277 230.18 33.0957 230.499 33.0319V35.4574C229.945 35.5957 229.472 35.6968 229.078 35.7606C228.685 35.8351 228.201 35.8723 227.626 35.8723C226.499 35.8723 225.664 35.5957 225.121 35.0426C224.589 34.4894 224.27 33.6755 224.164 32.6011H224.068C223.44 33.7287 222.653 34.5798 221.706 35.1543C220.759 35.7181 219.653 36 218.387 36ZM223.605 27.6862L221.307 27.7181C220.254 27.7713 219.515 27.883 219.089 28.0532C218.653 28.2447 218.318 28.5319 218.084 28.9149C217.86 29.2979 217.749 29.8085 217.749 30.4468C217.749 31.266 217.935 31.8777 218.307 32.2819C218.69 32.6755 219.195 32.8723 219.823 32.8723C220.525 32.8723 221.169 32.6809 221.754 32.2979C222.328 31.9149 222.781 31.3883 223.11 30.7181C223.44 30.0372 223.605 29.3191 223.605 28.5638V27.6862Z" fill="#FF0000"/>
<path d="M237.073 12V35.6809H232.589V12H237.073Z" fill="#FF0000"/>
<defs>
<linearGradient id="paint0_linear_655_6886" x1="7.98456" y1="25.2742" x2="7.15056" y2="20.106" gradientUnits="userSpaceOnUse">
<stop stop-color="white"/>
<stop offset="0.0078125" stop-color="white"/>
<stop offset="0.015625" stop-color="#FEFEFF"/>
<stop offset="0.0234375" stop-color="#FEFDFE"/>
<stop offset="0.03125" stop-color="#FDFDFE"/>
<stop offset="0.0390625" stop-color="#FDFCFE"/>
<stop offset="0.046875" stop-color="#FCFBFE"/>
<stop offset="0.0546875" stop-color="#FBFBFD"/>
<stop offset="0.0625" stop-color="#FBFAFD"/>
<stop offset="0.0703125" stop-color="#FAF9FD"/>
<stop offset="0.078125" stop-color="#FAF9FD"/>
<stop offset="0.0859375" stop-color="#F9F8FC"/>
<stop offset="0.09375" stop-color="#F9F8FC"/>
<stop offset="0.101563" stop-color="#F8F7FC"/>
<stop offset="0.109375" stop-color="#F8F6FC"/>
<stop offset="0.117187" stop-color="#F7F6FB"/>
<stop offset="0.125" stop-color="#F7F5FB"/>
<stop offset="0.132812" stop-color="#F6F4FB"/>
<stop offset="0.140625" stop-color="#F6F4FB"/>
<stop offset="0.148438" stop-color="#F5F3FA"/>
<stop offset="0.15625" stop-color="#F5F2FA"/>
<stop offset="0.164062" stop-color="#F4F2FA"/>
<stop offset="0.171875" stop-color="#F3F1F9"/>
<stop offset="0.179688" stop-color="#F3F0F9"/>
<stop offset="0.1875" stop-color="#F2F0F9"/>
<stop offset="0.195312" stop-color="#F2EFF9"/>
<stop offset="0.203125" stop-color="#F1EFF8"/>
<stop offset="0.210938" stop-color="#F1EEF8"/>
<stop offset="0.21875" stop-color="#F0EDF8"/>
<stop offset="0.226562" stop-color="#F0EDF8"/>
<stop offset="0.234375" stop-color="#EFECF7"/>
<stop offset="0.242188" stop-color="#EFEBF7"/>
<stop offset="0.25" stop-color="#EEEBF7"/>
<stop offset="0.257812" stop-color="#EEEAF7"/>
<stop offset="0.265625" stop-color="#EDE9F6"/>
<stop offset="0.273438" stop-color="#EDE9F6"/>
<stop offset="0.28125" stop-color="#ECE8F6"/>
<stop offset="0.289062" stop-color="#ECE7F6"/>
<stop offset="0.296875" stop-color="#EBE7F5"/>
<stop offset="0.304688" stop-color="#EAE6F5"/>
<stop offset="0.3125" stop-color="#EAE6F5"/>
<stop offset="0.320312" stop-color="#E9E5F5"/>
<stop offset="0.328125" stop-color="#E9E4F4"/>
<stop offset="0.335938" stop-color="#E8E4F4"/>
<stop offset="0.34375" stop-color="#E8E3F4"/>
<stop offset="0.351562" stop-color="#E7E2F4"/>
<stop offset="0.359375" stop-color="#E7E2F3"/>
<stop offset="0.367188" stop-color="#E6E1F3"/>
<stop offset="0.375" stop-color="#E6E0F3"/>
<stop offset="0.382812" stop-color="#E5E0F3"/>
<stop offset="0.390625" stop-color="#E5DFF2"/>
<stop offset="0.398438" stop-color="#E4DEF2"/>
<stop offset="0.40625" stop-color="#E4DEF2"/>
<stop offset="0.414062" stop-color="#E3DDF2"/>
<stop offset="0.421875" stop-color="#E2DDF1"/>
<stop offset="0.429687" stop-color="#E2DCF1"/>
<stop offset="0.4375" stop-color="#E1DBF1"/>
<stop offset="0.445313" stop-color="#E1DBF1"/>
<stop offset="0.453125" stop-color="#E0DAF0"/>
<stop offset="0.460938" stop-color="#E0D9F0"/>
<stop offset="0.46875" stop-color="#DFD9F0"/>
<stop offset="0.476562" stop-color="#DFD8F0"/>
<stop offset="0.484375" stop-color="#DED7EF"/>
<stop offset="0.492188" stop-color="#DED7EF"/>
<stop offset="0.5" stop-color="#DDD6EF"/>
<stop offset="0.507812" stop-color="#DDD5EF"/>
<stop offset="0.515625" stop-color="#DCD5EE"/>
<stop offset="0.523438" stop-color="#DCD4EE"/>
<stop offset="0.53125" stop-color="#DBD4EE"/>
<stop offset="0.539062" stop-color="#DBD3EE"/>
<stop offset="0.546875" stop-color="#DAD2ED"/>
<stop offset="0.554688" stop-color="#D9D2ED"/>
<stop offset="0.5625" stop-color="#D9D1ED"/>
<stop offset="0.570312" stop-color="#D8D0ED"/>
<stop offset="0.578125" stop-color="#D8D0EC"/>
<stop offset="0.585938" stop-color="#D7CFEC"/>
<stop offset="0.59375" stop-color="#D7CEEC"/>
<stop offset="0.601562" stop-color="#D6CEEB"/>
<stop offset="0.609375" stop-color="#D6CDEB"/>
<stop offset="0.617188" stop-color="#D5CDEB"/>
<stop offset="0.625" stop-color="#D5CCEB"/>
<stop offset="0.632812" stop-color="#D4CBEA"/>
<stop offset="0.640625" stop-color="#D4CBEA"/>
<stop offset="0.648438" stop-color="#D3CAEA"/>
<stop offset="0.65625" stop-color="#D3C9EA"/>
<stop offset="0.664062" stop-color="#D2C9E9"/>
<stop offset="0.671875" stop-color="#D1C8E9"/>
<stop offset="0.679688" stop-color="#D1C7E9"/>
<stop offset="0.6875" stop-color="#D0C7E9"/>
<stop offset="0.695312" stop-color="#D0C6E8"/>
<stop offset="0.703125" stop-color="#CFC5E8"/>
<stop offset="0.71875" stop-color="#CFC5E8"/>
<stop offset="0.75" stop-color="#CFC5E8"/>
<stop offset="1" stop-color="#CFC5E8"/>
</linearGradient>
<linearGradient id="paint1_linear_655_6886" x1="14.7874" y1="23.9682" x2="13.9653" y2="18.7996" gradientUnits="userSpaceOnUse">
<stop stop-color="#FFFEFF"/>
<stop offset="0.0078125" stop-color="#FEFEFF"/>
<stop offset="0.015625" stop-color="#FEFDFE"/>
<stop offset="0.0234375" stop-color="#FDFDFE"/>
<stop offset="0.03125" stop-color="#FDFCFE"/>
<stop offset="0.0390625" stop-color="#FCFCFE"/>
<stop offset="0.046875" stop-color="#FCFBFD"/>
<stop offset="0.0546875" stop-color="#FBFAFD"/>
<stop offset="0.0625" stop-color="#FBFAFD"/>
<stop offset="0.0703125" stop-color="#FAF9FD"/>
<stop offset="0.078125" stop-color="#FAF8FC"/>
<stop offset="0.0859375" stop-color="#F9F8FC"/>
<stop offset="0.09375" stop-color="#F8F7FC"/>
<stop offset="0.101563" stop-color="#F8F6FC"/>
<stop offset="0.109375" stop-color="#F7F6FB"/>
<stop offset="0.117187" stop-color="#F7F5FB"/>
<stop offset="0.125" stop-color="#F6F5FB"/>
<stop offset="0.132812" stop-color="#F6F4FB"/>
<stop offset="0.140625" stop-color="#F5F3FA"/>
<stop offset="0.148438" stop-color="#F5F3FA"/>
<stop offset="0.15625" stop-color="#F4F2FA"/>
<stop offset="0.164062" stop-color="#F4F1FA"/>
<stop offset="0.171875" stop-color="#F3F1F9"/>
<stop offset="0.179688" stop-color="#F3F0F9"/>
<stop offset="0.1875" stop-color="#F2EFF9"/>
<stop offset="0.195312" stop-color="#F2EFF9"/>
<stop offset="0.203125" stop-color="#F1EEF8"/>
<stop offset="0.210938" stop-color="#F1EEF8"/>
<stop offset="0.21875" stop-color="#F0EDF8"/>
<stop offset="0.226562" stop-color="#EFECF8"/>
<stop offset="0.234375" stop-color="#EFECF7"/>
<stop offset="0.242188" stop-color="#EEEBF7"/>
<stop offset="0.25" stop-color="#EEEAF7"/>
<stop offset="0.257812" stop-color="#EDEAF7"/>
<stop offset="0.265625" stop-color="#EDE9F6"/>
<stop offset="0.273438" stop-color="#ECE8F6"/>
<stop offset="0.28125" stop-color="#ECE8F6"/>
<stop offset="0.289062" stop-color="#EBE7F6"/>
<stop offset="0.296875" stop-color="#EBE6F5"/>
<stop offset="0.304688" stop-color="#EAE6F5"/>
<stop offset="0.3125" stop-color="#EAE5F5"/>
<stop offset="0.320312" stop-color="#E9E5F5"/>
<stop offset="0.328125" stop-color="#E9E4F4"/>
<stop offset="0.335938" stop-color="#E8E3F4"/>
<stop offset="0.34375" stop-color="#E8E3F4"/>
<stop offset="0.351562" stop-color="#E7E2F4"/>
<stop offset="0.359375" stop-color="#E6E1F3"/>
<stop offset="0.367188" stop-color="#E6E1F3"/>
<stop offset="0.375" stop-color="#E5E0F3"/>
<stop offset="0.382812" stop-color="#E5DFF2"/>
<stop offset="0.390625" stop-color="#E4DFF2"/>
<stop offset="0.398438" stop-color="#E4DEF2"/>
<stop offset="0.40625" stop-color="#E3DEF2"/>
<stop offset="0.414063" stop-color="#E3DDF1"/>
<stop offset="0.421875" stop-color="#E2DCF1"/>
<stop offset="0.429688" stop-color="#E2DCF1"/>
<stop offset="0.4375" stop-color="#E1DBF1"/>
<stop offset="0.445312" stop-color="#E1DAF0"/>
<stop offset="0.453125" stop-color="#E0DAF0"/>
<stop offset="0.460937" stop-color="#E0D9F0"/>
<stop offset="0.46875" stop-color="#DFD8F0"/>
<stop offset="0.476562" stop-color="#DFD8EF"/>
<stop offset="0.484375" stop-color="#DED7EF"/>
<stop offset="0.492188" stop-color="#DED7EF"/>
<stop offset="0.5" stop-color="#DDD6EF"/>
<stop offset="0.507812" stop-color="#DCD5EE"/>
<stop offset="0.515625" stop-color="#DCD5EE"/>
<stop offset="0.523438" stop-color="#DBD4EE"/>
<stop offset="0.53125" stop-color="#DBD3EE"/>
<stop offset="0.539062" stop-color="#DAD3ED"/>
<stop offset="0.546875" stop-color="#DAD2ED"/>
<stop offset="0.554688" stop-color="#D9D1ED"/>
<stop offset="0.5625" stop-color="#D9D1ED"/>
<stop offset="0.570312" stop-color="#D8D0EC"/>
<stop offset="0.578125" stop-color="#D8D0EC"/>
<stop offset="0.585938" stop-color="#D7CFEC"/>
<stop offset="0.59375" stop-color="#D7CEEC"/>
<stop offset="0.601562" stop-color="#D6CEEB"/>
<stop offset="0.609375" stop-color="#D6CDEB"/>
<stop offset="0.617188" stop-color="#D5CCEB"/>
<stop offset="0.625" stop-color="#D5CCEB"/>
<stop offset="0.632812" stop-color="#D4CBEA"/>
<stop offset="0.640625" stop-color="#D3CAEA"/>
<stop offset="0.648438" stop-color="#D3CAEA"/>
<stop offset="0.65625" stop-color="#D2C9EA"/>
<stop offset="0.664062" stop-color="#D2C8E9"/>
<stop offset="0.671875" stop-color="#D1C8E9"/>
<stop offset="0.679688" stop-color="#D1C7E9"/>
<stop offset="0.6875" stop-color="#D0C7E9"/>
<stop offset="0.695312" stop-color="#D0C6E8"/>
<stop offset="0.703125" stop-color="#CFC5E8"/>
<stop offset="0.71875" stop-color="#CFC5E8"/>
<stop offset="0.75" stop-color="#CFC5E8"/>
<stop offset="1" stop-color="#CFC5E8"/>
</linearGradient>
<linearGradient id="paint2_linear_655_6886" x1="21.4304" y1="22.7718" x2="20.6795" y2="18.2365" gradientUnits="userSpaceOnUse">
<stop stop-color="white"/>
<stop offset="0.0078125" stop-color="#FEFEFF"/>
<stop offset="0.015625" stop-color="#FEFEFF"/>
<stop offset="0.0234375" stop-color="#FDFDFE"/>
<stop offset="0.03125" stop-color="#FDFDFE"/>
<stop offset="0.0390625" stop-color="#FDFCFE"/>
<stop offset="0.046875" stop-color="#FCFBFE"/>
<stop offset="0.0546875" stop-color="#FCFBFD"/>
<stop offset="0.0625" stop-color="#FBFAFD"/>
<stop offset="0.0703125" stop-color="#FBFAFD"/>
<stop offset="0.078125" stop-color="#FAF9FD"/>
<stop offset="0.0859375" stop-color="#FAF9FC"/>
<stop offset="0.09375" stop-color="#F9F8FC"/>
<stop offset="0.101562" stop-color="#F9F8FC"/>
<stop offset="0.109375" stop-color="#F8F7FC"/>
<stop offset="0.117188" stop-color="#F8F6FC"/>
<stop offset="0.125" stop-color="#F7F6FB"/>
<stop offset="0.132812" stop-color="#F7F5FB"/>
<stop offset="0.140625" stop-color="#F6F5FB"/>
<stop offset="0.148438" stop-color="#F6F4FB"/>
<stop offset="0.15625" stop-color="#F6F4FA"/>
<stop offset="0.164062" stop-color="#F5F3FA"/>
<stop offset="0.171875" stop-color="#F5F2FA"/>
<stop offset="0.179688" stop-color="#F4F2FA"/>
<stop offset="0.1875" stop-color="#F4F1FA"/>
<stop offset="0.195312" stop-color="#F3F1F9"/>
<stop offset="0.203125" stop-color="#F3F0F9"/>
<stop offset="0.210938" stop-color="#F2F0F9"/>
<stop offset="0.21875" stop-color="#F2EFF9"/>
<stop offset="0.226562" stop-color="#F1EEF8"/>
<stop offset="0.234375" stop-color="#F1EEF8"/>
<stop offset="0.242188" stop-color="#F0EDF8"/>
<stop offset="0.25" stop-color="#F0EDF8"/>
<stop offset="0.257812" stop-color="#EFECF8"/>
<stop offset="0.265625" stop-color="#EFECF7"/>
<stop offset="0.273438" stop-color="#EFEBF7"/>
<stop offset="0.28125" stop-color="#EEEBF7"/>
<stop offset="0.289062" stop-color="#EEEAF7"/>
<stop offset="0.296875" stop-color="#EDE9F6"/>
<stop offset="0.304688" stop-color="#EDE9F6"/>
<stop offset="0.3125" stop-color="#ECE8F6"/>
<stop offset="0.320312" stop-color="#ECE8F6"/>
<stop offset="0.328125" stop-color="#EBE7F6"/>
<stop offset="0.335938" stop-color="#EBE7F5"/>
<stop offset="0.34375" stop-color="#EAE6F5"/>
<stop offset="0.351562" stop-color="#EAE5F5"/>
<stop offset="0.359375" stop-color="#E9E5F5"/>
<stop offset="0.367188" stop-color="#E9E4F4"/>
<stop offset="0.375" stop-color="#E8E4F4"/>
<stop offset="0.382812" stop-color="#E8E3F4"/>
<stop offset="0.390625" stop-color="#E8E3F4"/>
<stop offset="0.398437" stop-color="#E7E2F4"/>
<stop offset="0.40625" stop-color="#E7E1F3"/>
<stop offset="0.414063" stop-color="#E6E1F3"/>
<stop offset="0.421875" stop-color="#E6E0F3"/>
<stop offset="0.429687" stop-color="#E5E0F3"/>
<stop offset="0.4375" stop-color="#E5DFF2"/>
<stop offset="0.445313" stop-color="#E4DFF2"/>
<stop offset="0.453125" stop-color="#E4DEF2"/>
<stop offset="0.460937" stop-color="#E3DEF2"/>
<stop offset="0.46875" stop-color="#E3DDF1"/>
<stop offset="0.476563" stop-color="#E2DCF1"/>
<stop offset="0.484375" stop-color="#E2DCF1"/>
<stop offset="0.492187" stop-color="#E1DBF1"/>
<stop offset="0.5" stop-color="#E1DBF1"/>
<stop offset="0.507812" stop-color="#E0DAF0"/>
<stop offset="0.515625" stop-color="#E0DAF0"/>
<stop offset="0.523438" stop-color="#E0D9F0"/>
<stop offset="0.53125" stop-color="#DFD8F0"/>
<stop offset="0.539062" stop-color="#DFD8EF"/>
<stop offset="0.546875" stop-color="#DED7EF"/>
<stop offset="0.554688" stop-color="#DED7EF"/>
<stop offset="0.5625" stop-color="#DDD6EF"/>
<stop offset="0.570312" stop-color="#DDD6EF"/>
<stop offset="0.578125" stop-color="#DCD5EE"/>
<stop offset="0.585938" stop-color="#DCD4EE"/>
<stop offset="0.59375" stop-color="#DBD4EE"/>
<stop offset="0.601562" stop-color="#DBD3EE"/>
<stop offset="0.609375" stop-color="#DAD3ED"/>
<stop offset="0.617188" stop-color="#DAD2ED"/>
<stop offset="0.625" stop-color="#D9D2ED"/>
<stop offset="0.632812" stop-color="#D9D1ED"/>
<stop offset="0.640625" stop-color="#D9D1ED"/>
<stop offset="0.648438" stop-color="#D8D0EC"/>
<stop offset="0.65625" stop-color="#D8CFEC"/>
<stop offset="0.664062" stop-color="#D7CFEC"/>
<stop offset="0.671875" stop-color="#D7CEEC"/>
<stop offset="0.679688" stop-color="#D6CEEB"/>
<stop offset="0.6875" stop-color="#D6CDEB"/>
<stop offset="0.695312" stop-color="#D5CDEB"/>
<stop offset="0.703125" stop-color="#D5CCEB"/>
<stop offset="0.710938" stop-color="#D4CBEB"/>
<stop offset="0.71875" stop-color="#D4CBEA"/>
<stop offset="0.726562" stop-color="#D3CAEA"/>
<stop offset="0.734375" stop-color="#D3CAEA"/>
<stop offset="0.742188" stop-color="#D2C9EA"/>
<stop offset="0.75" stop-color="#D2C9E9"/>
<stop offset="0.757812" stop-color="#D2C8E9"/>
<stop offset="0.765625" stop-color="#D1C7E9"/>
<stop offset="0.773438" stop-color="#D1C7E9"/>
<stop offset="0.78125" stop-color="#D0C6E9"/>
<stop offset="0.789062" stop-color="#D0C6E8"/>
<stop offset="0.796875" stop-color="#CFC5E8"/>
<stop offset="0.8125" stop-color="#CFC5E8"/>
<stop offset="0.875" stop-color="#CFC5E8"/>
<stop offset="1" stop-color="#CFC5E8"/>
</linearGradient>
<linearGradient id="paint3_linear_655_6886" x1="27.8666" y1="21.5727" x2="27.1157" y2="17.0373" gradientUnits="userSpaceOnUse">
<stop stop-color="white"/>
<stop offset="0.0078125" stop-color="#FEFEFF"/>
<stop offset="0.015625" stop-color="#FEFEFF"/>
<stop offset="0.0234375" stop-color="#FEFDFE"/>
<stop offset="0.03125" stop-color="#FDFDFE"/>
<stop offset="0.0390625" stop-color="#FDFCFE"/>
<stop offset="0.046875" stop-color="#FCFBFE"/>
<stop offset="0.0546875" stop-color="#FCFBFD"/>
<stop offset="0.0625" stop-color="#FBFAFD"/>
<stop offset="0.0703125" stop-color="#FBFAFD"/>
<stop offset="0.078125" stop-color="#FAF9FD"/>
<stop offset="0.0859375" stop-color="#FAF9FC"/>
<stop offset="0.09375" stop-color="#F9F8FC"/>
<stop offset="0.101562" stop-color="#F9F8FC"/>
<stop offset="0.109375" stop-color="#F8F7FC"/>
<stop offset="0.117188" stop-color="#F8F6FC"/>
<stop offset="0.125" stop-color="#F7F6FB"/>
<stop offset="0.132812" stop-color="#F7F5FB"/>
<stop offset="0.140625" stop-color="#F6F5FB"/>
<stop offset="0.148438" stop-color="#F6F4FB"/>
<stop offset="0.15625" stop-color="#F6F4FA"/>
<stop offset="0.164062" stop-color="#F5F3FA"/>
<stop offset="0.171875" stop-color="#F5F2FA"/>
<stop offset="0.179688" stop-color="#F4F2FA"/>
<stop offset="0.1875" stop-color="#F4F1FA"/>
<stop offset="0.195313" stop-color="#F3F1F9"/>
<stop offset="0.203125" stop-color="#F3F0F9"/>
<stop offset="0.210937" stop-color="#F2F0F9"/>
<stop offset="0.21875" stop-color="#F2EFF9"/>
<stop offset="0.226563" stop-color="#F1EEF8"/>
<stop offset="0.234375" stop-color="#F1EEF8"/>
<stop offset="0.242187" stop-color="#F0EDF8"/>
<stop offset="0.25" stop-color="#F0EDF8"/>
<stop offset="0.257812" stop-color="#EFECF8"/>
<stop offset="0.265625" stop-color="#EFECF7"/>
<stop offset="0.273438" stop-color="#EFEBF7"/>
<stop offset="0.28125" stop-color="#EEEBF7"/>
<stop offset="0.289062" stop-color="#EEEAF7"/>
<stop offset="0.296875" stop-color="#EDE9F6"/>
<stop offset="0.304688" stop-color="#EDE9F6"/>
<stop offset="0.3125" stop-color="#ECE8F6"/>
<stop offset="0.320312" stop-color="#ECE8F6"/>
<stop offset="0.328125" stop-color="#EBE7F6"/>
<stop offset="0.335938" stop-color="#EBE7F5"/>
<stop offset="0.34375" stop-color="#EAE6F5"/>
<stop offset="0.351562" stop-color="#EAE5F5"/>
<stop offset="0.359375" stop-color="#E9E5F5"/>
<stop offset="0.367188" stop-color="#E9E4F4"/>
<stop offset="0.375" stop-color="#E8E4F4"/>
<stop offset="0.382812" stop-color="#E8E3F4"/>
<stop offset="0.390625" stop-color="#E8E3F4"/>
<stop offset="0.398438" stop-color="#E7E2F4"/>
<stop offset="0.40625" stop-color="#E7E1F3"/>
<stop offset="0.414062" stop-color="#E6E1F3"/>
<stop offset="0.421875" stop-color="#E6E0F3"/>
<stop offset="0.429688" stop-color="#E5E0F3"/>
<stop offset="0.4375" stop-color="#E5DFF2"/>
<stop offset="0.445312" stop-color="#E4DFF2"/>
<stop offset="0.453125" stop-color="#E4DEF2"/>
<stop offset="0.460938" stop-color="#E3DEF2"/>
<stop offset="0.46875" stop-color="#E3DDF2"/>
<stop offset="0.476562" stop-color="#E2DCF1"/>
<stop offset="0.484375" stop-color="#E2DCF1"/>
<stop offset="0.492188" stop-color="#E1DBF1"/>
<stop offset="0.5" stop-color="#E1DBF1"/>
<stop offset="0.507812" stop-color="#E0DAF0"/>
<stop offset="0.515625" stop-color="#E0DAF0"/>
<stop offset="0.523438" stop-color="#E0D9F0"/>
<stop offset="0.53125" stop-color="#DFD8F0"/>
<stop offset="0.539062" stop-color="#DFD8EF"/>
<stop offset="0.546875" stop-color="#DED7EF"/>
<stop offset="0.554688" stop-color="#DED7EF"/>
<stop offset="0.5625" stop-color="#DDD6EF"/>
<stop offset="0.570312" stop-color="#DDD6EF"/>
<stop offset="0.578125" stop-color="#DCD5EE"/>
<stop offset="0.585938" stop-color="#DCD4EE"/>
<stop offset="0.59375" stop-color="#DBD4EE"/>
<stop offset="0.601562" stop-color="#DBD3EE"/>
<stop offset="0.609375" stop-color="#DAD3ED"/>
<stop offset="0.617188" stop-color="#DAD2ED"/>
<stop offset="0.625" stop-color="#D9D2ED"/>
<stop offset="0.632812" stop-color="#D9D1ED"/>
<stop offset="0.640625" stop-color="#D9D1ED"/>
<stop offset="0.648438" stop-color="#D8D0EC"/>
<stop offset="0.65625" stop-color="#D8CFEC"/>
<stop offset="0.664062" stop-color="#D7CFEC"/>
<stop offset="0.671875" stop-color="#D7CEEC"/>
<stop offset="0.679688" stop-color="#D6CEEB"/>
<stop offset="0.6875" stop-color="#D6CDEB"/>
<stop offset="0.695312" stop-color="#D5CDEB"/>
<stop offset="0.703125" stop-color="#D5CCEB"/>
<stop offset="0.710938" stop-color="#D4CBEB"/>
<stop offset="0.71875" stop-color="#D4CBEA"/>
<stop offset="0.726562" stop-color="#D3CAEA"/>
<stop offset="0.734375" stop-color="#D3CAEA"/>
<stop offset="0.742188" stop-color="#D2C9EA"/>
<stop offset="0.75" stop-color="#D2C9E9"/>
<stop offset="0.757812" stop-color="#D2C8E9"/>
<stop offset="0.765625" stop-color="#D1C7E9"/>
<stop offset="0.773438" stop-color="#D1C7E9"/>
<stop offset="0.78125" stop-color="#D0C6E9"/>
<stop offset="0.789062" stop-color="#D0C6E8"/>
<stop offset="0.796875" stop-color="#CFC5E8"/>
<stop offset="0.8125" stop-color="#CFC5E8"/>
<stop offset="0.875" stop-color="#CFC5E8"/>
<stop offset="1" stop-color="#CFC5E8"/>
</linearGradient>
<linearGradient id="paint4_linear_655_6886" x1="34.4378" y1="20.4466" x2="33.6001" y2="15.3337" gradientUnits="userSpaceOnUse">
<stop stop-color="white"/>
<stop offset="0.0078125" stop-color="white"/>
<stop offset="0.015625" stop-color="#FEFEFF"/>
<stop offset="0.0234375" stop-color="#FEFDFE"/>
<stop offset="0.03125" stop-color="#FDFDFE"/>
<stop offset="0.0390625" stop-color="#FDFCFE"/>
<stop offset="0.046875" stop-color="#FCFBFE"/>
<stop offset="0.0546875" stop-color="#FBFBFD"/>
<stop offset="0.0625" stop-color="#FBFAFD"/>
<stop offset="0.0703125" stop-color="#FAFAFD"/>
<stop offset="0.078125" stop-color="#FAF9FD"/>
<stop offset="0.0859375" stop-color="#F9F8FC"/>
<stop offset="0.09375" stop-color="#F9F8FC"/>
<stop offset="0.101562" stop-color="#F8F7FC"/>
<stop offset="0.109375" stop-color="#F8F6FC"/>
<stop offset="0.117188" stop-color="#F7F6FB"/>
<stop offset="0.125" stop-color="#F7F5FB"/>
<stop offset="0.132812" stop-color="#F6F4FB"/>
<stop offset="0.140625" stop-color="#F6F4FB"/>
<stop offset="0.148438" stop-color="#F5F3FA"/>
<stop offset="0.15625" stop-color="#F5F3FA"/>
<stop offset="0.164062" stop-color="#F4F2FA"/>
<stop offset="0.171875" stop-color="#F4F1FA"/>
<stop offset="0.179688" stop-color="#F3F1F9"/>
<stop offset="0.1875" stop-color="#F3F0F9"/>
<stop offset="0.195312" stop-color="#F2EFF9"/>
<stop offset="0.203125" stop-color="#F2EFF9"/>
<stop offset="0.210938" stop-color="#F1EEF8"/>
<stop offset="0.21875" stop-color="#F1EEF8"/>
<stop offset="0.226562" stop-color="#F0EDF8"/>
<stop offset="0.234375" stop-color="#F0ECF8"/>
<stop offset="0.242188" stop-color="#EFECF7"/>
<stop offset="0.25" stop-color="#EEEBF7"/>
<stop offset="0.257812" stop-color="#EEEAF7"/>
<stop offset="0.265625" stop-color="#EDEAF7"/>
<stop offset="0.273438" stop-color="#EDE9F6"/>
<stop offset="0.28125" stop-color="#ECE9F6"/>
<stop offset="0.289062" stop-color="#ECE8F6"/>
<stop offset="0.296875" stop-color="#EBE7F6"/>
<stop offset="0.304688" stop-color="#EBE7F5"/>
<stop offset="0.3125" stop-color="#EAE6F5"/>
<stop offset="0.320312" stop-color="#EAE5F5"/>
<stop offset="0.328125" stop-color="#E9E5F5"/>
<stop offset="0.335938" stop-color="#E9E4F4"/>
<stop offset="0.34375" stop-color="#E8E4F4"/>
<stop offset="0.351562" stop-color="#E8E3F4"/>
<stop offset="0.359375" stop-color="#E7E2F4"/>
<stop offset="0.367187" stop-color="#E7E2F3"/>
<stop offset="0.375" stop-color="#E6E1F3"/>
<stop offset="0.382813" stop-color="#E6E0F3"/>
<stop offset="0.390625" stop-color="#E5E0F3"/>
<stop offset="0.398437" stop-color="#E5DFF2"/>
<stop offset="0.40625" stop-color="#E4DEF2"/>
<stop offset="0.414063" stop-color="#E4DEF2"/>
<stop offset="0.421875" stop-color="#E3DDF2"/>
<stop offset="0.429687" stop-color="#E3DDF1"/>
<stop offset="0.4375" stop-color="#E2DCF1"/>
<stop offset="0.445313" stop-color="#E2DBF1"/>
<stop offset="0.453125" stop-color="#E1DBF1"/>
<stop offset="0.460937" stop-color="#E0DAF0"/>
<stop offset="0.46875" stop-color="#E0D9F0"/>
<stop offset="0.476563" stop-color="#DFD9F0"/>
<stop offset="0.484375" stop-color="#DFD8F0"/>
<stop offset="0.492187" stop-color="#DED8EF"/>
<stop offset="0.5" stop-color="#DED7EF"/>
<stop offset="0.507812" stop-color="#DDD6EF"/>
<stop offset="0.515625" stop-color="#DDD6EF"/>
<stop offset="0.523438" stop-color="#DCD5EE"/>
<stop offset="0.53125" stop-color="#DCD4EE"/>
<stop offset="0.539062" stop-color="#DBD4EE"/>
<stop offset="0.546875" stop-color="#DBD3EE"/>
<stop offset="0.554688" stop-color="#DAD3ED"/>
<stop offset="0.5625" stop-color="#DAD2ED"/>
<stop offset="0.570312" stop-color="#D9D1ED"/>
<stop offset="0.578125" stop-color="#D9D1ED"/>
<stop offset="0.585938" stop-color="#D8D0EC"/>
<stop offset="0.59375" stop-color="#D8CFEC"/>
<stop offset="0.601562" stop-color="#D7CFEC"/>
<stop offset="0.609375" stop-color="#D7CEEC"/>
<stop offset="0.617188" stop-color="#D6CEEB"/>
<stop offset="0.625" stop-color="#D6CDEB"/>
<stop offset="0.632812" stop-color="#D5CCEB"/>
<stop offset="0.640625" stop-color="#D5CCEB"/>
<stop offset="0.648438" stop-color="#D4CBEA"/>
<stop offset="0.65625" stop-color="#D3CAEA"/>
<stop offset="0.664062" stop-color="#D3CAEA"/>
<stop offset="0.671875" stop-color="#D2C9EA"/>
<stop offset="0.679688" stop-color="#D2C9E9"/>
<stop offset="0.6875" stop-color="#D1C8E9"/>
<stop offset="0.695312" stop-color="#D1C7E9"/>
<stop offset="0.703125" stop-color="#D0C7E9"/>
<stop offset="0.710938" stop-color="#D0C6E8"/>
<stop offset="0.71875" stop-color="#CFC5E8"/>
<stop offset="0.75" stop-color="#CFC5E8"/>
<stop offset="1" stop-color="#CFC5E8"/>
</linearGradient>
<linearGradient id="paint5_linear_655_6886" x1="40.9564" y1="19.185" x2="40.1163" y2="14.0053" gradientUnits="userSpaceOnUse">
<stop stop-color="white"/>
<stop offset="0.0078125" stop-color="#FEFEFF"/>
<stop offset="0.015625" stop-color="#FEFEFE"/>
<stop offset="0.0234375" stop-color="#FDFDFE"/>
<stop offset="0.03125" stop-color="#FDFCFE"/>
<stop offset="0.0390625" stop-color="#FCFCFE"/>
<stop offset="0.046875" stop-color="#FCFBFD"/>
<stop offset="0.0546875" stop-color="#FBFAFD"/>
<stop offset="0.0625" stop-color="#FBFAFD"/>
<stop offset="0.0703125" stop-color="#FAF9FD"/>
<stop offset="0.078125" stop-color="#FAF9FC"/>
<stop offset="0.0859375" stop-color="#F9F8FC"/>
<stop offset="0.09375" stop-color="#F9F7FC"/>
<stop offset="0.101562" stop-color="#F8F7FC"/>
<stop offset="0.109375" stop-color="#F8F6FB"/>
<stop offset="0.117188" stop-color="#F7F5FB"/>
<stop offset="0.125" stop-color="#F6F5FB"/>
<stop offset="0.132812" stop-color="#F6F4FB"/>
<stop offset="0.140625" stop-color="#F5F3FA"/>
<stop offset="0.148438" stop-color="#F5F3FA"/>
<stop offset="0.15625" stop-color="#F4F2FA"/>
<stop offset="0.164062" stop-color="#F4F2FA"/>
<stop offset="0.171875" stop-color="#F3F1F9"/>
<stop offset="0.179687" stop-color="#F3F0F9"/>
<stop offset="0.1875" stop-color="#F2F0F9"/>
<stop offset="0.195313" stop-color="#F2EFF9"/>
<stop offset="0.203125" stop-color="#F1EEF8"/>
<stop offset="0.210937" stop-color="#F1EEF8"/>
<stop offset="0.21875" stop-color="#F0EDF8"/>
<stop offset="0.226563" stop-color="#F0ECF8"/>
<stop offset="0.234375" stop-color="#EFECF7"/>
<stop offset="0.242187" stop-color="#EFEBF7"/>
<stop offset="0.25" stop-color="#EEEAF7"/>
<stop offset="0.257812" stop-color="#EEEAF7"/>
<stop offset="0.265625" stop-color="#EDE9F6"/>
<stop offset="0.273438" stop-color="#ECE9F6"/>
<stop offset="0.28125" stop-color="#ECE8F6"/>
<stop offset="0.289062" stop-color="#EBE7F6"/>
<stop offset="0.296875" stop-color="#EBE7F5"/>
<stop offset="0.304688" stop-color="#EAE6F5"/>
<stop offset="0.3125" stop-color="#EAE5F5"/>
<stop offset="0.320312" stop-color="#E9E5F5"/>
<stop offset="0.328125" stop-color="#E9E4F4"/>
<stop offset="0.335938" stop-color="#E8E3F4"/>
<stop offset="0.34375" stop-color="#E8E3F4"/>
<stop offset="0.351562" stop-color="#E7E2F4"/>
<stop offset="0.359375" stop-color="#E7E2F3"/>
<stop offset="0.367188" stop-color="#E6E1F3"/>
<stop offset="0.375" stop-color="#E6E0F3"/>
<stop offset="0.382812" stop-color="#E5E0F3"/>
<stop offset="0.390625" stop-color="#E5DFF2"/>
<stop offset="0.398438" stop-color="#E4DEF2"/>
<stop offset="0.40625" stop-color="#E3DEF2"/>
<stop offset="0.414062" stop-color="#E3DDF2"/>
<stop offset="0.421875" stop-color="#E2DCF1"/>
<stop offset="0.429688" stop-color="#E2DCF1"/>
<stop offset="0.4375" stop-color="#E1DBF1"/>
<stop offset="0.445312" stop-color="#E1DBF1"/>
<stop offset="0.453125" stop-color="#E0DAF0"/>
<stop offset="0.460938" stop-color="#E0D9F0"/>
<stop offset="0.46875" stop-color="#DFD9F0"/>
<stop offset="0.476562" stop-color="#DFD8F0"/>
<stop offset="0.484375" stop-color="#DED7EF"/>
<stop offset="0.492188" stop-color="#DED7EF"/>
<stop offset="0.5" stop-color="#DDD6EF"/>
<stop offset="0.507812" stop-color="#DDD5EF"/>
<stop offset="0.515625" stop-color="#DCD5EE"/>
<stop offset="0.523438" stop-color="#DCD4EE"/>
<stop offset="0.53125" stop-color="#DBD4EE"/>
<stop offset="0.539062" stop-color="#DBD3EE"/>
<stop offset="0.546875" stop-color="#DAD2ED"/>
<stop offset="0.554688" stop-color="#D9D2ED"/>
<stop offset="0.5625" stop-color="#D9D1ED"/>
<stop offset="0.570312" stop-color="#D8D0ED"/>
<stop offset="0.578125" stop-color="#D8D0EC"/>
<stop offset="0.585938" stop-color="#D7CFEC"/>
<stop offset="0.59375" stop-color="#D7CEEC"/>
<stop offset="0.601562" stop-color="#D6CEEC"/>
<stop offset="0.609375" stop-color="#D6CDEB"/>
<stop offset="0.617188" stop-color="#D5CDEB"/>
<stop offset="0.625" stop-color="#D5CCEB"/>
<stop offset="0.632812" stop-color="#D4CBEA"/>
<stop offset="0.640625" stop-color="#D4CBEA"/>
<stop offset="0.648438" stop-color="#D3CAEA"/>
<stop offset="0.65625" stop-color="#D3C9EA"/>
<stop offset="0.664062" stop-color="#D2C9E9"/>
<stop offset="0.671875" stop-color="#D2C8E9"/>
<stop offset="0.679688" stop-color="#D1C7E9"/>
<stop offset="0.6875" stop-color="#D1C7E9"/>
<stop offset="0.695312" stop-color="#D0C6E8"/>
<stop offset="0.703125" stop-color="#CFC6E8"/>
<stop offset="0.71875" stop-color="#CFC5E8"/>
<stop offset="0.75" stop-color="#CFC5E8"/>
<stop offset="1" stop-color="#CFC5E8"/>
</linearGradient>
<clipPath id="clip0_655_6886">
<rect width="49.6642" height="48" fill="white"/>
</clipPath>
</defs>
</svg>
